#!OML:ASF F:\VICON\USERDATA\INSTALL\rory3\rory3.ASF
:FULLY-SPECIFIED
:DEGREES
160
root -0.0274296 19.4272 -1.25703 -0.441622 -2.17494 3.64414
lowerback 17.2372 0.480041 -2.63352
upperback 2.61023 0.137371 -0.0848858
thorax -6.86591 0.128514 1.37395
lowerneck -16.5487 -0.824746 -7.39242
upperneck -7.78281 0.253271 6.64493
head 0.325316 0.420791 3.53392
rclavicle -1.799e-014 -5.56597e-015
rhumerus 6.01656 -5.30604 -44.3923
rradius 88.5927
rwrist 6.33119
rhand -37.4731 5.02473
rfingers 7.12502
rthumb -10.531 -24.6915
lclavicle -1.799e-014 -5.56597e-015
lhumerus 8.50158 17.5433 31.1928
lradius 84.0374
lwrist 21.403
lhand -35.3598 26.7459
lfingers 7.12502
lthumb -8.49202 56.5551
rfemur -15.1963 5.88427 14.934
rtibia 41.1661
rfoot -2.69129 -10.7599
rtoes -11.2613
lfemur -12.8771 3.77064 -21.3062
ltibia 35.7077
lfoot 4.10122 2.12477
ltoes -14.7665
161
root -0.0368393 19.8301 -1.1436 0.251992 -2.26788 3.39639
lowerback 15.5728 0.451969 -2.51508
upperback 2.13348 0.179546 0.111591
thorax -6.46792 0.148268 1.50683
lowerneck -16.4776 -0.792304 -7.59837
upperneck -7.00981 0.296645 6.39301
head 0.568495 0.436939 3.49254
rclavicle 1.98785e-015 -1.03368e-014
rhumerus 4.68431 -5.59917 -43.2904
rradius 88.4318
rwrist 7.01911
rhand -37.6436 4.81079
rfingers 7.12502
rthumb -10.6955 -24.897
lclavicle 1.98785e-015 -1.03368e-014
lhumerus 6.4383 17.473 29.8646
lradius 83.9872
lwrist 21.2704
lhand -35.2407 26.6672
lfingers 7.12502
lthumb -8.37708 56.4811
rfemur -13.3269 7.80674 15.0504
rtibia 36.0513
rfoot 2.20063 -12.8079
rtoes -10.6747
lfemur -11.0446 2.35886 -20.942
ltibia 30.5007
lfoot 9.78725 4.44124
ltoes -12.9174
162
root -0.0468709 20.2363 -1.02332 0.979948 -2.37528 3.01547
lowerback 13.8419 0.435576 -2.21156
upperback 1.64018 0.25985 0.296164
thorax -6.04125 0.182179 1.51489
lowerneck -16.5318 -0.755844 -7.64869
upperneck -5.90491 0.321968 6.12273
head 0.945766 0.437692 3.42022
rclavicle 0 7.15625e-015
rhumerus 2.91669 -5.83455 -42.0227
rradius 88.3518
rwrist 7.58939
rhand -38.2124 4.27376
rfingers 7.12502
rthumb -11.2441 -25.4049
lclavicle 0 7.15625e-015
lhumerus 4.19602 17.1558 28.5787
lradius 84.1062
lwrist 21.0555
lhand -35.1632 26.308
lfingers 7.12502
lthumb -8.30231 56.1248
rfemur -11.511 10.1337 15.2451
rtibia 30.876
rfoot 7.13657 -15.7716
rtoes -9.10028
lfemur -9.29483 0.460629 -20.4101
ltibia 25.3081
lfoot 15.5683 8.4792
ltoes -8.30642
163
root -0.0547924 20.6375 -0.90119 1.83031 -2.45389 2.59257
lowerback 11.9125 0.448633 -1.74946
upperback 1.13574 0.387643 0.415439
thorax -5.50582 0.234563 1.35939
lowerneck -16.5784 -0.725523 -7.57746
upperneck -4.63666 0.3184 5.8965
head 1.38057 0.419698 3.34308
rclavicle 8.34896e-015 1.98785e-015
rhumerus 0.551546 -6.08105 -40.4985
rradius 88.4387
rwrist 7.96027
rhand -38.4681 4.42757
rfingers 7.12502
rthumb -11.4907 -25.2375
lclavicle 8.34896e-015 1.98785e-015
lhumerus 2.09014 16.7055 27.5156
lradius 84.332
lwrist 20.5264
lhand -35.0154 25.8667
lfingers 7.12502
lthumb -8.15961 55.6891
rfemur -9.90323 12.7774 15.3777
rtibia 25.8128
rfoot 11.7187 -19.8317
rtoes -4.92309
lfemur -7.79673 -2.08182 -19.8066
ltibia 20.3157
lfoot 20.7391 14.3949
ltoes 0.422389
164
root -0.0652295 21.0318 -0.789552 2.84094 -2.4305 2.06882
lowerback 9.90774 0.456565 -1.11638
upperback 0.591011 0.506665 0.488415
thorax -4.9569 0.279633 1.06683
lowerneck -16.4645 -0.636533 -7.40316
upperneck -3.5281 0.370987 5.70209
head 1.73059 0.427755 3.25866
rclavicle -1.49089e-015 1.98785e-015
rhumerus -1.96926 -6.38925 -39.0469
rradius 88.3922
rwrist 8.31883
rhand -38.7852 4.25662
rfingers 7.12502
rthumb -11.7965 -25.3912
lclavicle -1.49089e-015 1.98785e-015
lhumerus 0.131823 16.2423 26.6015
lradius 84.6729
lwrist 19.8582
lhand -34.4692 25.6316
lfingers 7.12502
lthumb -7.63242 55.4738
rfemur -8.73721 15.7344 15.5272
rtibia 21.2261
rfoot 15.2366 -24.1092
rtoes 0.555538
lfemur -6.75455 -5.34677 -19.0112
ltibia 15.9027
lfoot 22.9312 21.8038
ltoes 10.1199
165
root -0.076248 21.4065 -0.693638 3.82986 -2.29974 1.63536
lowerback 8.12902 0.453401 -0.542889
upperback 0.00619583 0.576795 0.531963
thorax -4.56554 0.30324 0.788413
lowerneck -16.3325 -0.532029 -7.11141
upperneck -2.33711 0.426028 5.38371
head 2.10505 0.431065 3.11129
rclavicle -2.38542e-015 1.59028e-015
rhumerus -4.35195 -6.65091 -37.7092
rradius 88.1159
rwrist 8.57299
rhand -38.7341 3.88444
rfingers 7.12502
rthumb -11.7472 -25.7662
lclavicle -2.38542e-015 1.59028e-015
lhumerus -1.8971 15.7378 25.7801
lradius 85.0864
lwrist 19.3491
lhand -34.0381 25.0227
lfingers 7.12502
lthumb -7.21632 54.8796
rfemur -7.94511 18.4502 15.5495
rtibia 17.452
rfoot 17.2568 -26.3939
rtoes 4.2876
lfemur -6.23075 -8.95487 -18.2233
ltibia 12.5623
lfoot 20.5237 28.8622
ltoes 17.0498
